<?xml version="1.0" standalone="no"?>
<!DOCTYPE svg PUBLIC "-//W3C//DTD SVG 20010904//EN"
 "http://www.w3.org/TR/2001/REC-SVG-20010904/DTD/svg10.dtd">
<svg version="1.0" xmlns="http://www.w3.org/2000/svg"
 width="800.000000pt" height="800.000000pt" viewBox="0 0 800.000000 800.000000"
 preserveAspectRatio="xMidYMid meet">

<g transform="translate(0.000000,800.000000) scale(0.100000,-0.100000)"
fill="#000000" stroke="none">
<path d="M3695 7989 c-1381 -111 -2587 -904 -3237 -2129 -435 -820 -567 -1813
-362 -2735 293 -1314 1243 -2403 2507 -2874 748 -278 1577 -326 2357 -135
1275 312 2329 1252 2789 2486 265 712 320 1487 160 2242 -279 1322 -1238 2430
-2513 2905 -529 197 -1149 285 -1701 240z m-1435 -2729 l0 -680 76 75 c205
203 436 294 714 282 148 -6 251 -31 365 -86 228 -110 350 -277 402 -554 13
-69 16 -223 20 -999 l4 -918 -324 0 -325 0 -5 823 c-5 876 -7 925 -54 1030
-84 188 -351 253 -583 141 -132 -63 -219 -183 -262 -363 -21 -83 -22 -113 -25
-858 l-4 -773 -330 0 -329 0 0 1780 0 1780 330 0 330 0 0 -680z m2550 -2 l0
-681 73 69 c138 134 266 213 422 260 83 26 103 28 260 28 196 -1 270 -16 411
-84 235 -113 361 -302 405 -605 8 -54 13 -370 16 -972 l5 -893 -331 0 -331 0
0 795 c0 827 -5 943 -41 1042 -38 99 -142 181 -261 203 -226 43 -452 -66 -543
-262 -75 -163 -84 -290 -85 -1130 l0 -648 -325 0 -325 0 0 1780 0 1780 325 0
325 0 0 -682z"/>
</g>
</svg>
